PathFileType	4	(X/Y/Z)	G:\Shared drives\HIT\Data\HapticPilot\Subject1\Edited\LHJC1.trc
DataRate	CameraRate	NumFrames	NumMarkers	Units	OrigDataRate	OrigDataStartFrame	OrigNumFrames
50.00	50.00	       6	38	mm	50.00	172	       684
Frame#	Time	r_knee			r_shank(antsup)			r_ankle			r_calc			r_5meta			r_toe			L_knee			L_shank(ant_sup)			L_ankle			L_calc			L_5meta			L_toe			r_mknee			r_mankle			L_mknee			L_mankle			r_sh2			r_sh3			r_sh4			L_sh2			L_sh3			r_thigh1			r_thigh2			r_thigh3			r_thigh4			r_thigh5			L_thigh1			L_thigh2			L_thigh3			L_thigh4			r.ASIS			r.PSIS			L.ASIS			L.PSIS			C7			R_Shoulder			L_Shoulder			Sternum			
		X1	Y1	Z1	X2	Y2	Z2	X3	Y3	Z3	X4	Y4	Z4	X5	Y5	Z5	X6	Y6	Z6	X7	Y7	Z7	X8	Y8	Z8	X9	Y9	Z9	X10	Y10	Z10	X11	Y11	Z11	X12	Y12	Z12	X13	Y13	Z13	X14	Y14	Z14	X15	Y15	Z15	X16	Y16	Z16	X17	Y17	Z17	X18	Y18	Z18	X19	Y19	Z19	X20	Y20	Z20	X21	Y21	Z21	X22	Y22	Z22	X23	Y23	Z23	X24	Y24	Z24	X25	Y25	Z25	X26	Y26	Z26	X27	Y27	Z27	X28	Y28	Z28	X29	Y29	Z29	X30	Y30	Z30	X31	Y31	Z31	X32	Y32	Z32	X33	Y33	Z33	X34	Y34	Z34	X35	Y35	Z35	X36	Y36	Z36	X37	Y37	Z37	X38	Y38	Z38	

172	3.420	781.67450	255.34210	570.95984	795.92023	254.19897	480.50766	711.00275	283.95245	112.45535	622.59833	333.47391	71.58845	818.04279	249.51741	39.29628	862.81665	310.17526	71.21256	922.96027	601.91669	629.55225	984.25446	612.32166	524.12909	991.29944	662.68103	175.30257	924.98260	625.41339	108.40562	1125.71252	698.42108	136.06625	1157.72449	633.33649	164.86293	783.84509	383.99399	558.18909	727.71198	379.24902	119.23522	935.42188	478.80426	607.12372	1012.46167	569.37866	171.36813	782.95270	261.55264	361.42200	720.57172	242.79680	485.65665	700.64160	246.40831	371.06235	895.93909	637.71729	524.20471	916.01660	655.67139	404.60037	828.28503	227.01788	898.77594	839.96991	232.01117	784.25177	795.23016	223.99612	747.84729	715.82056	213.94476	882.19269	731.63879	232.63795	766.49640	897.51666	582.96637	910.06860	953.26556	591.00360	783.60522	790.79028	611.34698	865.85651	848.96161	609.72302	743.95349	838.58398	260.05762	1095.82593	646.09637	344.97327	1119.63916	835.19531	514.01355	1127.87964	648.13104	425.35297	1124.52795	708.95050	393.23709	1617.61377	755.90173	224.92442	1586.94092	773.42047	571.89355	1580.41504	846.15771	386.63406	1542.69373	
173	3.440	780.78711	255.36264	571.04132	795.08875	254.32692	480.59775	710.98743	284.05771	112.48416	622.63031	333.54910	71.55778	818.05365	249.57222	39.30754	862.81995	310.20898	71.18338	932.37585	609.65894	637.76300	996.70734	622.42957	534.65723	1015.07648	680.49750	187.40002	950.70081	644.44855	117.82643	1150.53894	718.46973	153.11754	1181.83130	652.97516	181.15094	782.98193	384.03345	558.36475	727.61298	379.35532	119.15773	945.80023	487.02182	613.17365	1036.69617	587.64728	181.89226	782.37152	261.65372	361.57529	719.83563	242.90508	485.67804	700.04590	246.58627	371.08432	908.49280	647.76678	532.63080	932.13190	668.40558	414.01001	826.63306	225.79596	898.18353	838.21582	231.22681	783.88464	793.37714	223.59731	747.46814	714.09033	214.10890	881.90039	729.98633	232.70636	766.31720	898.43750	585.39716	916.55243	957.99298	596.25549	791.92743	793.59888	614.24371	870.48724	854.92230	615.13153	749.67761	837.18750	258.85895	1095.85254	644.73059	343.62656	1119.86694	833.26190	512.93085	1128.94385	646.33398	424.14850	1125.05298	708.89935	392.30087	1618.07654	756.06818	223.88997	1587.24719	773.41846	570.88550	1580.41150	845.92871	385.63617	1542.61584	
174	3.460	780.07800	255.54616	571.06311	794.87445	254.63060	480.78650	710.96985	284.10703	112.50851	622.64185	333.53561	71.65318	818.06586	249.60008	39.33691	862.85022	310.27499	71.21742	941.97559	617.46423	647.00995	1009.30865	632.62708	546.41632	1038.07703	697.72076	201.06152	976.40088	661.69592	128.85332	1174.25513	737.84601	171.47815	1205.44727	671.90674	199.09543	781.86578	384.24048	558.60303	727.32123	379.57074	119.19940	957.03876	495.44727	620.62170	1061.31067	604.92468	194.34468	782.23383	261.80164	361.75296	719.55322	242.97795	485.74207	699.90625	246.46945	371.15002	921.04034	657.46130	542.23474	948.22412	680.68719	424.76221	825.96564	225.27135	897.76166	837.23535	230.95749	783.54309	792.05042	223.39799	747.11505	712.86951	214.21815	881.72845	728.73059	233.10970	766.11151	898.86639	588.27155	923.71008	962.57263	601.65979	801.26239	795.77515	617.24121	875.03528	860.78882	620.68347	756.25842	835.99451	258.20273	1095.83215	643.57288	342.39774	1120.11584	831.11603	512.15790	1130.33167	644.45044	422.82568	1125.75793	708.91895	390.90891	1618.60168	756.76251	222.65564	1587.63110	773.17548	569.72644	1580.52063	845.60205	384.69763	1542.63538	
175	3.480	779.88385	255.70529	571.25183	794.82983	254.93021	481.01886	711.03223	284.14880	112.61877	622.65808	333.54059	71.79726	818.11139	249.64560	39.36397	862.92114	310.30151	71.21049	951.67365	625.57709	657.07703	1022.14014	643.06494	559.04364	1061.12976	713.86469	215.51262	1002.62695	678.13977	140.76079	1197.83765	756.36530	191.03253	1229.18860	690.42407	218.57019	781.02051	384.50134	558.81854	727.56342	379.51575	119.32824	969.00769	504.07336	629.46991	1085.92163	621.49762	208.10509	782.23541	262.08844	362.00107	719.52563	243.00082	486.00250	700.01392	246.42366	371.37659	933.45471	666.59631	552.12311	964.27319	692.09094	435.86050	825.27856	225.16557	897.46082	836.30988	230.93365	783.44775	791.32916	223.34618	747.06635	712.07135	214.14902	881.57648	728.06952	233.15297	766.05670	899.31177	591.37646	931.54608	967.16266	607.48773	811.57123	797.49957	620.32953	879.56464	866.95319	626.18860	763.16962	835.01440	257.84293	1096.04602	642.50995	341.05365	1120.65540	828.81964	511.66208	1131.93103	642.48114	421.46100	1126.45288	708.91284	389.36209	1619.32874	757.59015	221.47385	1588.15564	772.41565	568.49408	1580.90820	845.44354	383.85587	1542.84607	
176	3.500	779.79755	255.75352	571.44061	794.73669	255.05069	481.14911	711.13092	284.18890	112.72366	622.73462	333.58719	71.92941	818.09515	249.67148	39.35125	863.00031	310.33444	71.19871	961.23590	633.72186	667.55103	1035.22205	654.12756	572.76349	1084.13025	729.53369	230.98430	1029.40906	693.45996	153.88306	1221.37573	774.19843	211.58015	1252.84790	708.59686	239.66954	780.78723	384.58649	559.11554	727.66565	379.52188	119.39661	981.64795	513.25439	639.10559	1111.31604	637.48737	223.33202	782.25812	262.18622	362.15738	719.50543	242.94498	486.10614	699.97906	246.41055	371.42316	945.53705	675.61060	562.11395	980.02325	703.35864	447.69904	824.99384	225.47604	897.68915	835.96930	231.31767	783.92474	791.27161	223.51669	747.29150	711.70190	213.89903	881.53687	727.89630	232.87405	766.07111	899.61700	594.56421	939.34906	971.55255	613.43201	822.27789	799.28094	623.43890	884.37915	872.86993	631.87421	770.52277	833.88812	257.73166	1096.22742	641.14722	340.01645	1120.92957	826.28003	511.39160	1133.67688	640.80646	419.80835	1126.90869	708.96100	387.96198	1619.88977	758.86584	220.30176	1588.61169	771.31720	567.28827	1581.42700	845.28296	383.22525	1543.04968	
177	3.520	779.86664	255.77628	571.54718	794.78412	255.06039	481.32449	711.30396	284.22552	112.82829	622.83380	333.60886	72.07265	818.12939	249.71854	39.35897	863.10791	310.37570	71.12968	970.25757	641.54327	678.35858	1047.10999	665.36523	586.10895	1108.37134	744.64093	247.37752	1056.64453	708.93518	167.97037	1245.26782	791.77216	233.64735	1276.60449	726.26508	262.09662	780.91248	384.52475	559.28345	727.73340	379.54477	119.43584	993.88483	522.08990	649.21698	1136.99011	653.04858	240.25298	782.35193	262.20660	362.27274	719.56604	242.99419	486.19379	700.10071	246.36533	371.54974	957.83710	684.64374	572.70349	996.51733	712.90161	458.98386	825.02148	226.05238	898.15015	835.94806	231.85414	784.33240	791.54877	223.70470	747.52002	711.40009	213.50690	881.50763	727.88757	232.58044	765.99078	899.83862	597.67285	947.18488	975.68097	619.31018	832.90881	801.24652	626.44733	889.12634	878.37598	637.60675	777.96021	832.82678	257.71753	1096.46411	639.93268	339.07684	1121.19348	823.64197	511.14978	1135.37512	639.10809	418.56979	1127.37231	709.23151	386.22165	1620.29675	760.24188	219.16183	1588.83215	769.92657	566.07074	1581.99548	845.26697	382.70425	1543.15967	
